<svg width="50" height="44" viewBox="0 0 50 44" fill="none" xmlns="http://www.w3.org/2000/svg">
<path d="M20.832 27.0454L20.832 21.6363" stroke="#33363F" stroke-width="2" stroke-linecap="round"/>
<path d="M29.168 27.0454L29.168 21.6363" stroke="#33363F" stroke-width="2" stroke-linecap="round"/>
<path d="M6.25 12.6213H43.75H41.5C39.6144 12.6213 38.6716 12.6213 38.0858 13.2071C37.5 13.7929 37.5 14.7357 37.5 16.6213V32.0608C37.5 33.9464 37.5 34.8892 36.9142 35.475C36.3284 36.0608 35.3856 36.0608 33.5 36.0608H16.5C14.6144 36.0608 13.6716 36.0608 13.0858 35.475C12.5 34.8892 12.5 33.9464 12.5 32.0608V16.6213C12.5 14.7357 12.5 13.7929 11.9142 13.2071C11.3284 12.6213 10.3856 12.6213 8.5 12.6213H6.25Z" stroke="#33363F" stroke-width="2" stroke-linecap="round"/>
<path d="M20.9766 6.07737C21.214 5.88567 21.7371 5.71629 22.4648 5.59548C23.1925 5.47466 24.0841 5.40918 25.0013 5.40918C25.9185 5.40918 26.8101 5.47466 27.5378 5.59548C28.2655 5.71629 28.7886 5.88567 29.026 6.07737" stroke="#33363F" stroke-width="2" stroke-linecap="round"/>
</svg>
